<svg width="88" height="88" viewBox="0 0 88 88" fill="none" xmlns="http://www.w3.org/2000/svg">
<circle cx="44" cy="44" r="44" fill="#2C4FC9" fill-opacity="0.6"/>
<circle cx="44" cy="44" r="36" fill="#2C4FC9"/>
<path d="M49.833 33.4999C50.1394 33.1935 50.5032 32.9505 50.9036 32.7846C51.3039 32.6188 51.733 32.5334 52.1663 32.5334C52.5997 32.5334 53.0288 32.6188 53.4291 32.7846C53.8295 32.9505 54.1933 33.1935 54.4997 33.4999C54.8061 33.8064 55.0492 34.1701 55.215 34.5705C55.3808 34.9708 55.4662 35.3999 55.4662 35.8333C55.4662 36.2666 55.3808 36.6957 55.215 37.0961C55.0492 37.4964 54.8061 37.8602 54.4997 38.1666L38.7497 53.9166L32.333 55.6666L34.083 49.2499L49.833 33.4999Z" fill="white" stroke="white" stroke-width="2" stroke-linecap="round" stroke-linejoin="round"/>
</svg>
