<svg width="16" height="16" viewBox="0 0 16 16" fill="none" xmlns="http://www.w3.org/2000/svg">
<g clip-path="url(#clip0_0_2342)">
<path d="M13.7763 11.0932C12.8237 10.2784 11.8569 9.78484 10.916 10.5984L10.3541 11.0901C9.94304 11.447 9.17874 13.1147 6.22366 9.71531C3.2692 6.32023 5.02735 5.79161 5.43904 5.43777L6.00397 4.94546C6.93997 4.13007 6.58674 3.10361 5.91166 2.047L5.50427 1.407C4.82612 0.352842 4.08766 -0.339466 3.1492 0.474688L2.64212 0.917765C2.22735 1.21992 1.06797 2.20207 0.786735 4.06792C0.448274 6.30669 1.51597 8.87038 3.96212 11.6833C6.4052 14.4975 8.7972 15.911 11.063 15.8864C12.9461 15.8661 14.0834 14.8556 14.439 14.4882L14.948 14.0445C15.884 13.231 15.3024 12.4027 14.3492 11.5861L13.7763 11.0932Z" fill="#2C4FC9"/>
</g>
<defs>
<clipPath id="clip0_0_2342">
<rect width="16" height="16" fill="white"/>
</clipPath>
</defs>
</svg>
