<svg width="26" height="26" viewBox="0 0 26 26" fill="none" xmlns="http://www.w3.org/2000/svg">
<path fill-rule="evenodd" clip-rule="evenodd" d="M17.6369 12.4258C17.7891 12.5782 17.8745 12.7847 17.8745 13C17.8745 13.2153 17.7891 13.4218 17.6369 13.5742L9.51191 21.6992C9.35788 21.8427 9.15417 21.9208 8.94367 21.9171C8.73318 21.9134 8.53235 21.8281 8.38348 21.6793C8.23462 21.5304 8.14935 21.3296 8.14563 21.1191C8.14192 20.9086 8.22005 20.7049 8.36357 20.5508L15.9144 13L8.36357 5.44916C8.22005 5.29514 8.14192 5.09142 8.14563 4.88093C8.14935 4.67044 8.23462 4.4696 8.38348 4.32074C8.53235 4.17188 8.73318 4.0866 8.94367 4.08289C9.15417 4.07918 9.35788 4.15731 9.51191 4.30083L17.6369 12.4258Z" fill="white"/>
</svg>
