<svg width="50" height="50" viewBox="0 0 50 50" fill="none" xmlns="http://www.w3.org/2000/svg">
<circle cx="25" cy="25" r="25" fill="#FCFCFC" fill-opacity="0.1"/>
<circle cx="25" cy="25" r="24.5" stroke="#FCFCFC" stroke-opacity="0.1"/>
<path d="M23.9558 40.8182C22.1304 39.4767 20.8148 37.4645 20.3708 35.1329H14.5V10.5712C17.641 12.1043 19.9103 15.458 20.157 18.9394L21.045 25.8384L20.6175 25.7905C19.6801 25.7905 18.8579 26.6529 18.8579 27.4993C18.8579 28.2978 19.4828 28.9685 20.305 29.1442L21.3739 29.3837C23.1335 26.1418 24.1366 22.9638 24.1366 19.8497C24.1366 17.039 23.7584 14.2283 23.6926 11.3537C23.6926 10.0761 24.2024 8.91029 25.0082 8C25.8305 8.91029 26.3238 10.0761 26.3238 11.3537C26.3238 14.2283 25.8798 17.039 25.8798 19.8497C25.8798 22.9638 26.8829 26.1418 28.6425 29.3837L29.7114 29.1442C30.5337 28.9685 31.1586 28.2818 31.1586 27.4993C31.1586 26.6369 30.3363 25.7905 29.399 25.7905L28.955 25.8544L29.843 18.9554C30.287 15.4739 32.359 12.1043 35.5 10.5871V35.1489H29.6457C29.2016 37.4645 27.9518 39.5566 26.0607 40.8342C25.6167 41.1376 25.2385 41.5049 24.9918 42C24.7616 41.5049 24.3833 41.1376 23.9558 40.8182ZM17.2792 26.6529C17.5258 25.7426 18.2165 24.9441 19.1045 24.449L18.4139 18.7637C18.1672 16.9911 17.4107 15.4101 16.276 14.1165V26.6369H17.2792V26.6529ZM20.2392 33.4241C20.2392 32.5618 20.3708 31.7792 20.5517 30.9807L19.7294 30.7891C18.529 30.4218 17.5916 29.5115 17.2792 28.3457H16.276V33.4241H20.2392ZM24.1366 33.4241C24.1366 32.3861 23.3144 31.4758 22.2455 31.3481C22.0646 32.0188 21.933 32.6895 21.933 33.4241H24.1366ZM24.1366 35.1489H22.1797C22.4922 36.4904 23.1828 37.7201 24.1366 38.7581V35.1489ZM26.8994 29.8309C26.1429 28.4894 25.4522 27.0841 25.0082 25.6148C24.5642 27.0841 23.8735 28.4894 23.1171 29.8309C23.8735 30.0066 24.4984 30.5016 25.0082 31.0606C25.518 30.5016 26.1429 30.0066 26.8994 29.8309ZM28.0998 33.4241C28.0998 32.6895 27.9683 32.0188 27.7874 31.3481C26.7185 31.4758 25.8962 32.3861 25.8962 33.4241H28.0998ZM27.8532 35.1489H25.8962V38.7581C26.85 37.7041 27.5407 36.4904 27.8532 35.1489ZM33.7569 33.4241V28.3457H32.7537C32.4413 29.5115 31.4875 30.4218 30.3034 30.7891L29.4812 30.9807C29.6621 31.7792 29.7937 32.5618 29.7937 33.4241H33.7569ZM33.7569 26.6529V14.1165C32.6222 15.3941 31.7999 16.9911 31.619 18.7637L30.9283 24.449C31.8164 24.9441 32.507 25.7266 32.7537 26.6529H33.7569Z" fill="#FCFCFC"/>
</svg>
